<svg xmlns="http://www.w3.org/2000/svg" xmlns:xlink="http://www.w3.org/1999/xlink" viewBox="0 0 133.65 93.01"><defs><style>.cls-1{fill:url(#linear-gradient);}</style><linearGradient id="linear-gradient" x1="66.54" x2="66.54" y2="73.55" gradientUnits="userSpaceOnUse"><stop offset="0" stop-color="#d5e04b"/><stop offset="1" stop-color="#0a7891"/></linearGradient></defs><g id="Layer_2" data-name="Layer 2"><g id="Layer_2-2" data-name="Layer 2"><path class="cls-1" d="M24,61.82,42.69,54V64.55l-12,9ZM34.79,51.75l7.9-1.39v-6l5.87-3.59L34.79,38.46ZM24,28.29,50.6,39.66l6-3.54L30.68,16.71ZM56.59,14.41,44.94,21.08l12.4,14.57,5.55-3.32ZM90.39,54V64.55l12,9,6.75-11.73Zm0-3.61,7.91,1.39V38.46L84.53,40.82l5.86,3.59Zm12-33.65L76.49,36.12l6,3.54,26.6-11.37Zm-25.92-2.3L70.2,32.33l5.54,3.32,12.4-14.57ZM73.28,0H59.81l3.8,32,2.93-1.72L69.48,32Zm-12,47.65h4.54V43.11H61.29Zm6,0h4.54V43.11H67.28Zm-6,6h4.54V49.14H61.29Zm6,0h4.54V49.14H67.28Z"/><path d="M0,79.38H2.42v11H9.23v2H0Z"/><path d="M13.39,91.72a6.44,6.44,0,0,1-2.51-2.4,6.94,6.94,0,0,1,0-6.87,6.44,6.44,0,0,1,2.51-2.4A7.5,7.5,0,0,1,17,79.19a7.5,7.5,0,0,1,3.59.86,6.49,6.49,0,0,1,2.51,2.39,7,7,0,0,1,0,6.89,6.49,6.49,0,0,1-2.51,2.39,7.5,7.5,0,0,1-3.59.86A7.5,7.5,0,0,1,13.39,91.72Zm5.93-1.85A4.21,4.21,0,0,0,21,88.24a4.92,4.92,0,0,0,0-4.71,4.21,4.21,0,0,0-1.64-1.63A4.57,4.57,0,0,0,17,81.31a4.57,4.57,0,0,0-2.34.59A4.21,4.21,0,0,0,13,83.53a5,5,0,0,0,0,4.71,4.21,4.21,0,0,0,1.64,1.63,4.57,4.57,0,0,0,2.34.59A4.57,4.57,0,0,0,19.32,89.87Z"/><path d="M29,91.72a6.43,6.43,0,0,1-2.49-2.39,6.68,6.68,0,0,1-.9-3.45A6.47,6.47,0,0,1,29,80.05a7.84,7.84,0,0,1,6.48-.3,6,6,0,0,1,2.24,1.62l-1.57,1.46a4.56,4.56,0,0,0-3.47-1.52,4.75,4.75,0,0,0-2.4.59,4.24,4.24,0,0,0-1.66,1.62,5,5,0,0,0,0,4.73,4.24,4.24,0,0,0,1.66,1.62,4.75,4.75,0,0,0,2.4.59,4.51,4.51,0,0,0,3.47-1.54l1.57,1.48A5.91,5.91,0,0,1,35.51,92a7.86,7.86,0,0,1-6.49-.3Z"/><path d="M45.09,83.9l-3.67,8.91H38.9l6.19-14.1,6.26,14.1H48.56Z"/><path d="M114.36,83.9l-3.67,8.91h-2.52l6.19-14.1,6.26,14.1h-2.8Z"/><path d="M53.73,79.38h2.42v11H63v2H53.73Z"/><path d="M72.47,92.57a6.19,6.19,0,0,1-2.16-1l.88-1.85a7.47,7.47,0,0,0,1.81.94,6.18,6.18,0,0,0,1.91.28,2.88,2.88,0,0,0,1.81-.48,1.54,1.54,0,0,0,.6-1.27,1.4,1.4,0,0,0-.34-1,2.18,2.18,0,0,0-.85-.58c-.34-.14-1.83-.87-2.34-1.11a7.29,7.29,0,0,1-2.11-1.45A3.51,3.51,0,0,1,71,83a3.71,3.71,0,0,1,.34-1.82,3.54,3.54,0,0,1,1.47-1.45,5,5,0,0,1,2.42-.54,6.23,6.23,0,0,1,2,.31,4.88,4.88,0,0,1,1.66.88l-.63,1.94a5.7,5.7,0,0,0-1.5-.79,4.53,4.53,0,0,0-1.5-.27,2.31,2.31,0,0,0-1.71.52,1.37,1.37,0,0,0-.37,1.1,1.35,1.35,0,0,0,.33.94,5,5,0,0,0,1.58,1c.48.19,1.86.75,2.37,1A3.39,3.39,0,0,1,78.75,87,3.46,3.46,0,0,1,79.31,89a4.28,4.28,0,0,1-.49,2,3.63,3.63,0,0,1-1.49,1.44,5.12,5.12,0,0,1-2.42.53A6.76,6.76,0,0,1,72.47,92.57Z"/><path d="M84.2,91.72a6.37,6.37,0,0,1-2.51-2.4,6.94,6.94,0,0,1,0-6.87,6.37,6.37,0,0,1,2.51-2.4,7.92,7.92,0,0,1,7.18,0,6.64,6.64,0,0,1,0,11.67,7.92,7.92,0,0,1-7.18,0Zm5.93-1.85a4.21,4.21,0,0,0,1.64-1.63,5,5,0,0,0,0-4.71,4.21,4.21,0,0,0-1.64-1.63,5,5,0,0,0-4.69,0,4.19,4.19,0,0,0-1.63,1.63,4.92,4.92,0,0,0,0,4.71,4.19,4.19,0,0,0,1.63,1.63,5,5,0,0,0,4.69,0Z"/><path d="M97.37,79.38h2.41v11h6.81v2H97.37Z"/><path d="M131.05,92.39l-2.66-3.81-.5,0H125v3.79h-2.42v-13h5.36a7.21,7.21,0,0,1,2.94.55,4.38,4.38,0,0,1,1.93,1.6,4.47,4.47,0,0,1,.67,2.48,4.4,4.4,0,0,1-.72,2.53,4.33,4.33,0,0,1-2.05,1.58l3,4.27Zm-.88-10.3a3.67,3.67,0,0,0-2.4-.67H125v5.19h2.82a3.67,3.67,0,0,0,2.4-.68,2.66,2.66,0,0,0,0-3.84Z"/></g></g></svg>