<svg xmlns="http://www.w3.org/2000/svg" xmlns:xlink="http://www.w3.org/1999/xlink" viewBox="0 0 84.26 64.43"><defs><style>.cls-1{fill:url(#linear-gradient);}.cls-2{fill:url(#linear-gradient-2);}.cls-3{fill:#a99980;}.cls-4{fill:#987b4f;}.cls-5{fill:url(#linear-gradient-3);}.cls-6{fill:url(#linear-gradient-4);}.cls-7{isolation:isolate;}.cls-8{fill:url(#linear-gradient-5);}</style><linearGradient id="linear-gradient" x1="42.13" y1="895.63" x2="42.13" y2="840.97" gradientTransform="translate(0 -834)" gradientUnits="userSpaceOnUse"><stop offset="0.37" stop-color="#b99930" stop-opacity="0"/><stop offset="0.97" stop-color="#b99930" stop-opacity="0.91"/><stop offset="1" stop-color="#b99930"/></linearGradient><linearGradient id="linear-gradient-2" x1="-70.04" y1="-1446.85" x2="-70.04" y2="-1434.21" gradientTransform="matrix(1, 0, 0, -1, 112.23, -1421.42)" gradientUnits="userSpaceOnUse"><stop offset="0" stop-color="#b6875c"/><stop offset="0.51" stop-color="#e8bd82"/><stop offset="0.99" stop-color="#b9975d"/></linearGradient><linearGradient id="linear-gradient-3" x1="-81.01" y1="-1456.45" x2="-75.47" y2="-1456.45" gradientTransform="matrix(1, 0, 0, -1, 112.23, -1421.42)" gradientUnits="userSpaceOnUse"><stop offset="0.04" stop-color="#a37c4f"/><stop offset="0.23" stop-color="#e9bb7c"/><stop offset="0.28" stop-color="#d5ac6f"/><stop offset="0.35" stop-color="#c5a065"/><stop offset="0.42" stop-color="#bc995f"/><stop offset="0.52" stop-color="#b9975d"/><stop offset="0.65" stop-color="#bc995f"/><stop offset="0.74" stop-color="#c59f67"/><stop offset="0.81" stop-color="#d4a974"/><stop offset="0.82" stop-color="#d7ab76"/><stop offset="1" stop-color="#685a43"/></linearGradient><linearGradient id="linear-gradient-4" x1="-74.47" y1="-1454.7" x2="-59.11" y2="-1454.7" gradientTransform="matrix(1, 0, 0, -1, 112.23, -1421.42)" gradientUnits="userSpaceOnUse"><stop offset="0" stop-color="#8f6e45"/><stop offset="0.17" stop-color="#e8bd82"/><stop offset="0.25" stop-color="#d4ab76"/><stop offset="0.5" stop-color="#9d7954"/><stop offset="0.59" stop-color="#a07b56"/><stop offset="0.66" stop-color="#a9835a"/><stop offset="0.71" stop-color="#b89163"/><stop offset="0.76" stop-color="#cea46f"/><stop offset="0.78" stop-color="#daae75"/><stop offset="1" stop-color="#694f36"/></linearGradient><linearGradient id="linear-gradient-5" x1="-53.59" y1="-1465.5" x2="-27.96" y2="-1465.5" gradientTransform="matrix(1, 0, 0, -1, 112.23, -1421.42)" gradientUnits="userSpaceOnUse"><stop offset="0" stop-color="#b89063"/><stop offset="0.21" stop-color="#edc285"/><stop offset="0.21" stop-color="#ecc185"/><stop offset="0.37" stop-color="#c29b6b"/><stop offset="0.49" stop-color="#a9845b"/><stop offset="0.57" stop-color="#9f7b55"/><stop offset="1" stop-color="#d7ae77"/></linearGradient></defs><g id="Layer_2" data-name="Layer 2"><g id="Layer_1-2" data-name="Layer 1"><path class="cls-1" d="M41.13,15.23c-.1,0-.1.1-.2.1a1.33,1.33,0,0,1,2.4-.4h-.8a.75.75,0,0,0-.5.1,2.92,2.92,0,0,0-.9.2Zm2.2,1.3c0-.1.1-.1.1-.2h-.3A.22.22,0,0,1,43.33,16.53Zm-.9,24.8c-.1.1-.2.1-.4.1h0a.37.37,0,0,1-.3-.1,3.12,3.12,0,0,0-3-1h0l.2.2a.35.35,0,0,1,.1.2v.2l.1.1c.1,0,.2.1.3.1s.2.1.3.2l.1.1.2.2c.1.1.2.1.3.2h.3l.5.2.5.3h0a.37.37,0,0,1,.3-.1h.9c.1-.2.2-.3.4-.3a1,1,0,0,1,.4-.1h.6a.43.43,0,0,1,.4-.4l.1-.1a.37.37,0,0,1,.3-.1h.2a.37.37,0,0,1,.1-.3l.2-.2c.1-.1.1-.1.2-.1h0c.1-.1.1-.2.2-.3v-.1h-.5A3.28,3.28,0,0,0,42.43,41.33Zm5.1-5.2V35a.37.37,0,0,1-.1-.3.6.6,0,0,1-.1-.4v-.4c-.1-.1-.1-.2-.2-.3s-.1-.2-.1-.4V33a2.19,2.19,0,0,0-.3-.5l-.3-.3a.37.37,0,0,1-.1-.3h0c0-.1-.1-.1-.1-.2s-.2-.3-.3-.5h0c-.1-.1-.1-.1-.1-.2s-.1-.1-.1-.2a2.65,2.65,0,0,0-.5-.6L45,30h0l-.1-.1v-.1a4.35,4.35,0,0,1-.6-.7v5.1a2.79,2.79,0,0,0,2.6,2.9,2.49,2.49,0,0,0,.8-.1v-.9Zm21.9-1.8A27.3,27.3,0,1,1,42.13,7,27.27,27.27,0,0,1,69.43,34.33Zm-15.8.5a7.34,7.34,0,0,0-4-4.7c-.2-.1-.5-.1-.6.1a.66.66,0,0,0-.1.6,13.71,13.71,0,0,1,.4,2.9,5,5,0,0,1-.2,1.8.1.1,0,0,0-.1-.1v-.9a.37.37,0,0,0-.1-.3h0V34c-.1-.3-.1-.6-.2-.8a.6.6,0,0,0-.1-.4.35.35,0,0,0-.1-.2,6.89,6.89,0,0,0-.3-.8c0-.2-.1-.3-.1-.4s-.1-.1-.1-.2h0a2.19,2.19,0,0,1-.3-.5c0-.1-.1-.2-.1-.3s-.2-.4-.2-.5h0c0-.1,0-.1-.1-.2s-.3-.4-.5-.6h0c0-.1-.1-.1-.1-.2a.1.1,0,0,0-.1-.1v-.1c-.2-.2-.3-.4-.5-.6s-.3-.3-.5-.6l-.1-.1c0-.1-.1-.1-.2-.2s-.3-.2-.4-.4l-.3-.3-.2-.2h0a2.18,2.18,0,0,1-.4-.5.1.1,0,0,0-.1-.1H44a.55.55,0,0,0,.3-.5v-3.3l.3-.3h2.3a1.3,1.3,0,1,0,0-2.6h-2.1a1.24,1.24,0,0,0-.8-.6,3.35,3.35,0,0,0,1.5-1.8,9.12,9.12,0,0,1,2.1,1.5c.1.1.2.1.4.1a.37.37,0,0,0,.3-.1.48.48,0,0,0,0-.7,12.83,12.83,0,0,0-2.2-2c-.1-.1-.2-.1-.4,0a3.4,3.4,0,0,0-6.8.1,1.49,1.49,0,0,0,.2.9c.1.1.1.1.2.1l-.2.2-.1.1a.22.22,0,0,1-.2.2c-.1.1-.1.2-.2.3h0c-.2.2-.2.3-.2.6h0a1.85,1.85,0,0,0-.2.7h0c-.1.1-.1.2-.1.4h-.2a1.3,1.3,0,1,0,0,2.6h.7a2.51,2.51,0,0,0,.4.7h0a.1.1,0,0,0,.1.1v.1a.1.1,0,0,0,.1.1h0l.6.9a.1.1,0,0,0,.1.1l.1.1a.1.1,0,0,0,.1.1h0a.1.1,0,0,0,.1.1,8.74,8.74,0,0,0,.8,1h-.1a.55.55,0,0,0-.3.5v8.4a2.83,2.83,0,0,1-2.4,2.9.37.37,0,0,1,.1-.3h0a.47.47,0,0,0-.9-.3.9.9,0,0,0-.1.5h-.1c-.6-.1-1.9-.8-1.7-3.2s.3-2.9.3-2.9h0a.64.64,0,0,0,0-.6.47.47,0,0,0-.6-.1c-.1.1-3.2,1.6-4,4.7,0,.2,0,.4.2.5a.64.64,0,0,0,.6,0,2.61,2.61,0,0,1,1-.3,4.16,4.16,0,0,0,.2,2.5,5,5,0,0,0,4,2.7h.1c.1,0,.1,0,.2-.1.1.1.1.3.2.4a.76.76,0,0,0,.1.4,5.8,5.8,0,0,0,1,1.2l.3.3c.2.1.3.2.5.3s.3.2.4.2a.7.7,0,0,0,.4.2,4.8,4.8,0,0,0,1.7.5H44a5,5,0,0,0,1.3-.4h0c.1,0,.2,0,.2-.1h.1c.1,0,.1,0,.1-.1s.2-.1.4-.2.2-.1.3-.2.2-.1.3-.2H47l.1-.1h0a3.82,3.82,0,0,0,.9-.9V41l.1-.1a2.09,2.09,0,0,0,.4-.6v-.2a5.38,5.38,0,0,0,3.6-2.6,5.23,5.23,0,0,0,.2-2.5,3.9,3.9,0,0,1,1.1.4.64.64,0,0,0,.6,0C54.23,35.33,53.63,35,53.63,34.83Zm-14-16.3c0,.1,0,.1-.1.1v.1c0,.1-.1.3-.1.4h.3a1.56,1.56,0,0,1,.8-.6,2,2,0,0,1-.7-.6C39.73,18.23,39.63,18.33,39.63,18.53Z"/><path class="cls-2" d="M40.73,21.73V22l2.9,3.4v-3.7c.3,0,.4-.2.5-.4h2.6a.8.8,0,1,0,0-1.6h-2.5a.65.65,0,0,0-.6-.6h-.5v-.7a2.89,2.89,0,1,0-3.9-2.7.75.75,0,0,0,.1.5,4.37,4.37,0,0,1,1-.6,1.9,1.9,0,0,1,3.8.1,1.89,1.89,0,0,1-.9,1.6,1,1,0,0,0-1-.8,1.08,1.08,0,0,0-1,.8l-.3-.3a4.62,4.62,0,0,0-.7.7,3.59,3.59,0,0,0,1,.7v.7h-.5a.65.65,0,0,0-.6.6h-2.5a.8.8,0,0,0,0,1.6h2.5A.82.82,0,0,0,40.73,21.73Zm1.4-8.3a2.46,2.46,0,0,0-2.4,2.1v-.1a2.4,2.4,0,0,1,4.8,0v.1A2.32,2.32,0,0,0,42.13,13.43Z"/><path class="cls-3" d="M46.73,40.13h.8a2.09,2.09,0,0,1-.4.6c0,.1-.1.1-.1.2a3,3,0,0,1-.8.8.35.35,0,0,1-.2.1h0c-.2.2-.5.3-.7.5s-.2.1-.4.2-.2.1-.3.1a6.58,6.58,0,0,1-1.5.4h-1.6a4.42,4.42,0,0,1-1.5-.5.35.35,0,0,1-.2-.1h0c-.3-.2-.7-.4-1-.6l-.1-.1-.1-.1a5.24,5.24,0,0,1-1-1.1c.1-.1.1-.2,0-.2a3.55,3.55,0,0,1-.4-.9c0-.1-.1-.2-.1-.3h0V39a6,6,0,0,1,.3-2.6,3.67,3.67,0,0,0-.1,1.8h0a.9.9,0,0,0,.1.5h0a.9.9,0,0,0,.1.5c0,.1,0,.1.1.2h0a.52.52,0,0,0,.2.4h0a3.51,3.51,0,0,0,.5.8v.1l.3.3h0c.1.2.3.3.5.5h0c.1.1.2.1.3.2l.1.1h0a10.91,10.91,0,0,0,1.1.6h.1c.2.1.3.1.5.2h0a3,3,0,0,0,1,.2h.3a2.77,2.77,0,0,0,.9-.1h0c.2,0,.2-.1.4-.1h0a3,3,0,0,0,1-.4h0c.1,0,.2-.1.3-.2a.1.1,0,0,0,.1-.1,2.65,2.65,0,0,0,.6-.5l.2-.2C46.23,40.83,46.53,40.53,46.73,40.13Z"/><path class="cls-3" d="M45.53,16.43a.37.37,0,0,1,.1-.3,9.52,9.52,0,0,1,2.1,1.9A8.23,8.23,0,0,0,45.53,16.43Z"/><path class="cls-3" d="M48.63,35.93h0v.5l-.2.1-.1.1-.3.1v-.6h0v-.3h0c0-.4-.1-.8-.1-1.2h0a.37.37,0,0,0-.1-.3c-.1-.3-.1-.6-.2-.9h0c0-.1-.1-.2-.1-.3a6.72,6.72,0,0,0-.6-1.2h0c0-.1-.1-.1-.1-.2h0c-.2-.3-.4-.7-.6-1h0c0-.1-.1-.1-.1-.2h0a5.5,5.5,0,0,0-.7-.9h0l-.2-.2a6.47,6.47,0,0,0-.8-.9h0l-.2-.2c-.3-.3-.6-.7-.9-1h0l-.2-.2a6,6,0,0,0-.8-.8h0c-.1-.1-.1-.1-.1-.2a.1.1,0,0,1-.1-.1,6.47,6.47,0,0,0-.8-.9l-.2-.2a10.63,10.63,0,0,1-.9-1.1c0-.1-.1-.1-.1-.2l-.2-.2-.6-.9a.35.35,0,0,1-.1-.2h0a3.38,3.38,0,0,1-.6-1.2.35.35,0,0,1-.1-.2.9.9,0,0,1-.1-.5,2,2,0,0,1,0-1.1v-.2a4.87,4.87,0,0,1,.4-1.1c0-.1,0-.1.1-.2s.3-.4.4-.6l.3-.3.2-.2h0a9.38,9.38,0,0,1,1.2-.9h0c.1,0,.1-.1.2-.1h0a2.35,2.35,0,0,1,.8-.2,4.33,4.33,0,0,1,.5-.1h1v.4h-.1a2.2,2.2,0,0,0-.8.1h0a1.09,1.09,0,0,0-.5.1H42a3.08,3.08,0,0,0-1.2.5h0c-.1.1-.2.1-.3.2h0a2.7,2.7,0,0,0-.8.7h0l-.1.1a.35.35,0,0,0-.1.2h0a1.61,1.61,0,0,0-.4.7h0a.37.37,0,0,0-.1.3h0a2.46,2.46,0,0,0-.1,1.2v.5c.1.2.1.4.2.6a.35.35,0,0,0,.1.2,6.73,6.73,0,0,0,.7,1.1h0c0,.1.1.1.1.2.2.3.5.6.7.9h0l.2.2h0a7,7,0,0,1,.8,1l.2.2c.2.2.3.4.5.5l.3.3h0c0,.1.1.1.2.2.3.3.6.7.9,1h0l.2.2a6,6,0,0,0,.8.8c0,.1.1.1.2.2.3.4.6.7.9,1.1a.35.35,0,0,1,.1.2,5.55,5.55,0,0,0,.6.8v.1h0a.35.35,0,0,1,.1.2h0c.2.3.4.7.6,1h0c0,.1.1.1.1.2h0a6.12,6.12,0,0,1,.5,1.2c0,.1.1.1.1.2h0a6.47,6.47,0,0,1,.4,1.3h0v.2h0c0,.3.1.6.1.9h0A1.34,1.34,0,0,1,48.63,35.93Z"/><path class="cls-4" d="M44.33,28.43l-.2-.2-.3-1.4.2.2Z"/><path class="cls-4" d="M45.33,29.53l-.2-.2-.4-1.4c0,.1.1.1.2.2Z"/><path class="cls-4" d="M46.13,30.63c0-.1-.1-.1-.1-.2h0l-.1-1.3a.35.35,0,0,1,.1.2Z"/><path class="cls-4" d="M46.73,31.73h0v-1.4a.35.35,0,0,1,.1.2h0v1.4A.35.35,0,0,0,46.73,31.73Z"/><path class="cls-4" d="M47.53,33.43c0-.1-.1-.2-.1-.3v-1.6c0,.1.1.1.1.2h0Z"/><path class="cls-4" d="M48.13,33.13h0l-.3,1.5a.37.37,0,0,0-.1-.3l.3-1.4A.35.35,0,0,0,48.13,33.13Z"/><path class="cls-4" d="M48.53,34.73h0l-.5,1.4v-.3h0l.5-1.3Z"/><path class="cls-4" d="M48.63,35.93h0l-.2.5-.1.1.3-.9Z"/><path class="cls-4" d="M47.13,40.73c0,.1-.1.1-.1.2l-1.3.4.2-.2Z"/><path class="cls-4" d="M46.23,41.73a.35.35,0,0,1-.2.1h0l-1.3.2c.1,0,.2-.1.3-.2Z"/><path class="cls-4" d="M44.93,42.53c-.1,0-.2.1-.3.1l-1.4-.1c.2,0,.2-.1.4-.1h0Z"/><path class="cls-4" d="M43.23,43H43l-1-.4h.3Z"/><path class="cls-4" d="M40.53,42.23h0l1.2.8H42l-1-.6h0Z"/><path class="cls-4" d="M40.23,42.53a.35.35,0,0,1-.2-.1h0l-.9-1c.1.1.2.1.3.2l.1.1h0Z"/><path class="cls-4" d="M38.93,41.83h0c-.1-.1-.2-.1-.2-.2l-.5-1.1.3.3h0Z"/><path class="cls-4" d="M37.83,40.53c-.1-.1-.1-.2-.2-.2l-.1-1a.52.52,0,0,0,.2.4h0Z"/><path class="cls-4" d="M37.33,38.53h0l-.1.8c0-.1-.1-.2-.1-.3h0l.1-1A1.09,1.09,0,0,1,37.33,38.53Z"/><path class="cls-4" d="M43.23,27.23,43,27l-.3-1.3c0,.1.1.1.2.2Z"/><path class="cls-4" d="M42.33,26.23c-.1-.1-.1-.1-.1-.2l-.4-1.4.2.2Z"/><path class="cls-4" d="M41.33,25.13l-.2-.2-.3-1.5.2.2h0Z"/><path class="cls-4" d="M40.23,23.83c0-.1-.1-.1-.1-.2l-.1-1.3c0,.1.1.1.1.2Z"/><path class="cls-4" d="M39.33,22.53a.35.35,0,0,1-.1-.2h0v-1.4a.35.35,0,0,0,.1.2Z"/><path class="cls-4" d="M39.13,18.43a.37.37,0,0,0-.1.3h0l-.7.7v-.2Z"/><path class="cls-4" d="M39.73,17.43h0c-.1.1-.2.2-.2.3h0l-.8.4c0-.1,0-.1.1-.2Z"/><path class="cls-4" d="M40.93,16.53c-.1.1-.2.1-.3.2h0l-1,.3.2-.2h0Z"/><path class="cls-4" d="M42.63,15.93a1.09,1.09,0,0,0-.5.1H42l-1.1-.1c.1,0,.1-.1.2-.1h0Z"/><path class="cls-4" d="M43.53,15.83h0l-1-.3h.2Z"/><path class="cls-4" d="M38.93,20.13l-.4,1a.35.35,0,0,1-.1-.2l.4-1.2C38.83,19.93,38.83,20,38.93,20.13Z"/><path class="cls-5" d="M35.33,37.23a5.21,5.21,0,0,0,1.3.5v-.5c-1.2-.3-2.3-1.4-2.1-3.7a11.23,11.23,0,0,1,.4-3.1,7.59,7.59,0,0,0-3.7,4.4,5.32,5.32,0,0,1,1.7-.5,4.09,4.09,0,0,1,.7-1.5s-1.2,2.9-.5,4.4a4.52,4.52,0,0,0,3.6,2.4,11.14,11.14,0,0,1-.2-1.7A2.52,2.52,0,0,1,35.33,37.23Zm-3.1-3.1-.5.2a7.7,7.7,0,0,1,2.4-2.9A10.77,10.77,0,0,0,32.23,34.13Z"/><path class="cls-6" d="M51.43,34.43a5.32,5.32,0,0,1,1.7.5,7.59,7.59,0,0,0-3.7-4.4,11.23,11.23,0,0,1,.4,3.1c.2,2.9-1.6,3.8-3.1,3.8a3.25,3.25,0,0,1-3.1-3.4v-5.3l-2.9-3.1V34a3.3,3.3,0,0,1-3,3.4v.4c.2,0,.4-.1.6-.1a5,5,0,0,0,2.5-2,3,3,0,0,1-2.1,2.4,5.63,5.63,0,0,0,2.1-.5,5.19,5.19,0,0,1-3.1.8,2.73,2.73,0,0,0,.5,1.4c1.5-.1,2.3-.3,3.8,1.1v-.1l.1.1c1.8-1.6,2.5-1.1,4.6-1.1a4.92,4.92,0,0,0,4.4-2.5c.7-1.5-.5-4.4-.5-4.4A3.46,3.46,0,0,1,51.43,34.43Zm-8,3.2a5.63,5.63,0,0,0,2.1.5,3,3,0,0,1-2.1-2.4,5,5,0,0,0,2.5,2,4,4,0,0,0,3.1-.5A4.46,4.46,0,0,1,43.43,37.63Zm6.6-6.5h0a8.54,8.54,0,0,1,2.5,3.2l-.5-.2A9.44,9.44,0,0,0,50,31.13Z"/><g class="cls-7"><path d="M.65,58.2A2.94,2.94,0,0,1,0,56.14v-.63H1.64v.76c0,.71.3,1.07.9,1.07a.87.87,0,0,0,.67-.26,1.31,1.31,0,0,0,.22-.85A2.36,2.36,0,0,0,3.12,55,5.75,5.75,0,0,0,2,53.75,6.93,6.93,0,0,1,.46,52,3.44,3.44,0,0,1,0,50.31a2.87,2.87,0,0,1,.66-2,2.47,2.47,0,0,1,1.92-.72,2.41,2.41,0,0,1,1.89.72,3,3,0,0,1,.63,2.05v.46H3.5v-.57a1.3,1.3,0,0,0-.22-.82.8.8,0,0,0-.65-.26q-.87,0-.87,1.05a2.06,2.06,0,0,0,.33,1.12,5.75,5.75,0,0,0,1.17,1.26,6.65,6.65,0,0,1,1.5,1.72,3.84,3.84,0,0,1,.41,1.81,3,3,0,0,1-.67,2.08,2.54,2.54,0,0,1-1.95.72A2.44,2.44,0,0,1,.65,58.2Z"/><path d="M7.51,49.3H5.7V47.73h5.36V49.3H9.25v9.45H7.51Z"/><path d="M11.89,47.73h4.73V49.3h-3v2.92H16v1.57H13.63v3.39h3v1.57H11.89Z"/><path d="M19,47.73H21.3l1.79,11H21.36L21,56.57v0h-2l-.32,2.15H17.15Zm1.89,7.37-.77-5.45h0l-.76,5.45Z"/><path d="M23.93,47.73h2.64a2.54,2.54,0,0,1,1.94.69,2.88,2.88,0,0,1,.65,2V56a2.88,2.88,0,0,1-.65,2,2.54,2.54,0,0,1-1.94.69H23.93Zm2.61,9.45a.86.86,0,0,0,.66-.25,1.22,1.22,0,0,0,.22-.82V50.38a1.2,1.2,0,0,0-.22-.82.87.87,0,0,0-.66-.26h-.88v7.88Z"/><path d="M30.32,47.73h4.59V49.3H32.05v3.08h2.24V54H32.05v4.8H30.32Z"/><path d="M36.58,47.73h2.34l1.8,11H39l-.32-2.18v0h-2l-.31,2.15H34.78Zm1.89,7.37-.78-5.45h0l-.75,5.45Z"/><path d="M41.85,58.2a3,3,0,0,1-.64-2.06v-.63h1.63v.76c0,.71.3,1.07.9,1.07a.84.84,0,0,0,.67-.26,1.31,1.31,0,0,0,.23-.85A2.36,2.36,0,0,0,44.32,55a5.65,5.65,0,0,0-1.16-1.26A7,7,0,0,1,41.66,52a3.54,3.54,0,0,1-.42-1.73,2.87,2.87,0,0,1,.66-2,2.47,2.47,0,0,1,1.92-.72,2.37,2.37,0,0,1,1.88.72,3,3,0,0,1,.64,2.05v.46H44.7v-.57a1.24,1.24,0,0,0-.22-.82.76.76,0,0,0-.64-.26q-.87,0-.87,1.05a2.14,2.14,0,0,0,.32,1.12,6.11,6.11,0,0,0,1.18,1.26A6.39,6.39,0,0,1,46,54.3a3.72,3.72,0,0,1,.41,1.81,2.94,2.94,0,0,1-.67,2.08,2.51,2.51,0,0,1-1.94.72A2.47,2.47,0,0,1,41.85,58.2Z"/><path d="M48.72,49.3H46.91V47.73h5.35V49.3H50.45v9.45H48.72Z"/><path d="M58.14,47.73h1.73v4.49h1.86V47.73h1.73v11H61.73v-5H59.87v5H58.14Z"/><path d="M65.31,58.19a2.85,2.85,0,0,1-.68-2v-5.8a2.83,2.83,0,0,1,.68-2,3,3,0,0,1,3.9,0,2.87,2.87,0,0,1,.68,2v5.8a2.9,2.9,0,0,1-.68,2,3,3,0,0,1-3.9,0Zm2.85-1.94v-6q0-1.08-.9-1.08t-.9,1.08v6c0,.72.3,1.09.9,1.09S68.16,57,68.16,56.25Z"/><path d="M71.06,47.73h2.47l1.1,7.89h0l1.11-7.89h2.47v11H76.6V50.41h0l-1.26,8.34H73.86L72.6,50.41h0v8.34H71.06Z"/><path d="M79.53,47.73h4.73V49.3h-3v2.92h2.38v1.57H81.26v3.39h3v1.57H79.53Z"/></g><polygon class="cls-8" points="60.63 46.83 58.63 46.83 64.83 41.33 69.44 45.53 84.23 45.53 84.23 46.83 68.94 46.83 64.73 43.13 60.63 46.83"/><path d="M7.63,62.73c0,.2,0,.5-.1.6a1.38,1.38,0,0,1-.3.4l.4.3-.4.4-.5-.4h-.2a1.42,1.42,0,0,1-.6-.2c-.2-.1-.3-.3-.4-.4a1.48,1.48,0,0,1-.1-.7v-.1a1.48,1.48,0,0,1,.1-.7,1.76,1.76,0,0,1,.4-.5.73.73,0,0,1,.6-.2,1.42,1.42,0,0,1,.6.2,1,1,0,0,1,.4.5,1.72,1.72,0,0,1,.1.8Zm-.6-.1c0-.3,0-.5-.1-.6a.5.5,0,0,0-.8,0c-.1.1-.1.3-.1.6v.1c0,.3,0,.5.1.6a.5.5,0,0,0,.8,0c.1-.1.1-.4.1-.6Z"/><path d="M11.23,61.33V63a1,1,0,0,1-1,1,1.17,1.17,0,0,1-.7-.2.91.91,0,0,1-.3-.7v-1.8h.5V63c0,.2,0,.3.1.4a.37.37,0,0,0,.3.1.47.47,0,0,0,.5-.5v-1.8l.6.1Z"/><path d="M14.33,63.43h-.9l-.2.5h-.6l1-2.6h.5l1,2.6h-.6Zm-.8-.4h.7l-.3-1Z"/><path d="M17.13,63.53h1.1v.4h-1.7v-2.6H17v2.2Z"/><path d="M20.33,63.93h-.5v-2.6h.5Z"/><path d="M24,61.83h-.8V64h-.5v-2.2h-.8v-.4H24Z"/><path d="M26.43,62.53l.5-1.2h.6l-.8,1.7v1h-.6V63l-.9-1.7h.6Z"/><path d="M31.83,63.93h-.5v-2.6h.5Z"/><path d="M34.83,63.33c0-.1,0-.2-.1-.2s-.2-.1-.4-.2-.3-.1-.4-.2a.75.75,0,0,1-.4-.7.6.6,0,0,1,.1-.4l.3-.3a1.3,1.3,0,0,1,1,0c.1.1.3.2.3.3a.6.6,0,0,1,.1.4h-.5a.43.43,0,0,0-.7-.3c-.1.1-.1.1-.1.2s0,.2.1.2.2.1.4.2a4.88,4.88,0,0,1,.7.3.76.76,0,0,1,.2.5.55.55,0,0,1-.3.5,1.45,1.45,0,0,1-.7.2,1.27,1.27,0,0,1-.6-.1,1.38,1.38,0,0,1-.4-.3.6.6,0,0,1-.1-.4h.5c0,.3.2.4.5.4a.37.37,0,0,0,.3-.1C34.83,63.43,34.83,63.43,34.83,63.33Z"/><path d="M41.33,62.73a1.48,1.48,0,0,1-.1.7,1.76,1.76,0,0,1-.4.5,1,1,0,0,1-1.2,0c-.2-.1-.3-.3-.4-.4s-.1-.4-.1-.7v-.1a1.48,1.48,0,0,1,.1-.7,1.76,1.76,0,0,1,.4-.5,1,1,0,0,1,1.2,0,1,1,0,0,1,.4.5,1.48,1.48,0,0,1,.1.7Zm-.6-.1c0-.3,0-.5-.1-.6a.5.5,0,0,0-.8,0c-.1.1-.1.3-.1.6v.1c0,.3,0,.5.1.6a.5.5,0,0,0,.8,0c.1-.1.1-.4.1-.6Z"/><path d="M44.93,61.33V63a1,1,0,0,1-1,1,1.17,1.17,0,0,1-.7-.2.91.91,0,0,1-.3-.7v-1.8h.5V63c0,.2,0,.3.1.4a.37.37,0,0,0,.3.1.47.47,0,0,0,.5-.5v-1.8l.6.1Z"/><path d="M47.53,63h-.4v1h-.5v-2.6h1a1.17,1.17,0,0,1,.7.2.6.6,0,0,1,.3.6c0,.2,0,.3-.1.4a1.38,1.38,0,0,1-.4.3l.6,1.1h-.6Zm-.4-.5h.4a.4.4,0,1,0,0-.8h-.4Z"/><path d="M53,61.33l.7,1.9.7-1.9h.7v2.6h-.5v-.7l.1-1.2L54,64h-.4l-.7-2,.1,1.2v.7h-.5v-2.6Z"/><path d="M58.23,63.43h-.9l-.2.5h-.6l1-2.6H58l1,2.6h-.6Zm-.8-.4h.7l-.3-1Z"/><path d="M61,63.93h-.5v-2.6H61Z"/><path d="M64.93,63.93h-.5l-1.1-1.7v1.7h-.5v-2.6h.5l1.1,1.7v-1.7h.5Z"/><path d="M67.93,63.33c0-.1,0-.2-.1-.2s-.2-.1-.4-.2-.3-.1-.4-.2a.75.75,0,0,1-.4-.7.6.6,0,0,1,.1-.4l.3-.3a1.3,1.3,0,0,1,1,0c.1.1.3.2.3.3a.6.6,0,0,1,.1.4h-.5a.43.43,0,0,0-.7-.3c-.1.1-.1.1-.1.2s0,.2.1.2.2.1.4.2a4.88,4.88,0,0,1,.7.3.76.76,0,0,1,.2.5.55.55,0,0,1-.3.5,1.45,1.45,0,0,1-.7.2,1.27,1.27,0,0,1-.6-.1,1.38,1.38,0,0,1-.4-.3.6.6,0,0,1-.1-.4h.5c0,.3.2.4.5.4a.37.37,0,0,0,.3-.1C67.93,63.43,67.93,63.43,67.93,63.33Z"/><path d="M72.13,61.83h-.8V64h-.6v-2.2h-.8v-.4H72v.4Z"/><path d="M74.93,63.43H74l-.3.5h-.6l1-2.6h.5l1,2.6H75ZM74,63h.7l-.3-1Z"/><path d="M77.73,62.53l.5-1.2h.6l-.9,1.7v1h-.6V63l-.9-1.7H77Z"/><g class="cls-7"><path d="M28.37,2.78H27l-.29.82h-.64L27.41.05H28L29.31,3.6h-.65Zm-1.2-.5h1L27.68.8Z"/><path d="M31,3.6V.05h1a1.63,1.63,0,0,1,.83.21,1.47,1.47,0,0,1,.57.59,2,2,0,0,1,.2.89v.18a1.9,1.9,0,0,1-.2.88,1.46,1.46,0,0,1-.58.6,1.81,1.81,0,0,1-.85.2Zm.61-3V3.11H32a.92.92,0,0,0,.74-.3A1.36,1.36,0,0,0,33,1.93V1.74a1.43,1.43,0,0,0-.25-.89A.91.91,0,0,0,32,.55Z"/><path d="M34.87,3.6h-.61V.05h.61Z"/><path d="M36.89,2.83l.9-2.78h.68L37.19,3.6h-.6L35.32.05H36Z"/><path d="M39.52,3.6H38.9V.05h.62Z"/><path d="M42.14,2.69A.42.42,0,0,0,42,2.33a2,2,0,0,0-.59-.26,2.86,2.86,0,0,1-.69-.29A.91.91,0,0,1,40.21,1a.87.87,0,0,1,.35-.71A1.39,1.39,0,0,1,41.47,0a1.53,1.53,0,0,1,.66.14,1.1,1.1,0,0,1,.46.39,1,1,0,0,1,.16.56h-.61A.56.56,0,0,0,42,.65a.73.73,0,0,0-.5-.16A.8.8,0,0,0,41,.62a.44.44,0,0,0-.16.36.4.4,0,0,0,.18.33,2,2,0,0,0,.59.25,3.38,3.38,0,0,1,.67.28,1.09,1.09,0,0,1,.37.37.89.89,0,0,1,.12.47.85.85,0,0,1-.35.71,1.48,1.48,0,0,1-.92.26,1.83,1.83,0,0,1-.71-.14,1.32,1.32,0,0,1-.5-.39,1,1,0,0,1-.18-.59h.62a.56.56,0,0,0,.2.47.86.86,0,0,0,.57.16A.75.75,0,0,0,42,3,.43.43,0,0,0,42.14,2.69Z"/><path d="M44,3.6h-.62V.05H44Z"/><path d="M47.55,1.92a2.22,2.22,0,0,1-.19.92,1.37,1.37,0,0,1-.51.6,1.44,1.44,0,0,1-.77.21,1.4,1.4,0,0,1-1.3-.81,2.13,2.13,0,0,1-.18-.9v-.2a2.22,2.22,0,0,1,.18-.92A1.36,1.36,0,0,1,45.3.21a1.52,1.52,0,0,1,1.54,0,1.39,1.39,0,0,1,.52.6,2.34,2.34,0,0,1,.19.91Zm-.62-.19a1.53,1.53,0,0,0-.23-.9.72.72,0,0,0-.63-.32.75.75,0,0,0-.63.32,1.56,1.56,0,0,0-.23.88v.21a1.53,1.53,0,0,0,.23.9.8.8,0,0,0,1.27,0,1.63,1.63,0,0,0,.22-.91Z"/><path d="M51,3.6h-.62L48.78,1.08V3.6h-.62V.05h.62l1.59,2.53V.05H51Z"/><path d="M55.79,1.92a2.22,2.22,0,0,1-.18.92,1.37,1.37,0,0,1-.51.6,1.47,1.47,0,0,1-.78.21,1.44,1.44,0,0,1-.77-.21,1.39,1.39,0,0,1-.52-.6,2.13,2.13,0,0,1-.19-.9v-.2A2.07,2.07,0,0,1,53,.82a1.31,1.31,0,0,1,.52-.61A1.41,1.41,0,0,1,54.32,0a1.44,1.44,0,0,1,.77.21,1.46,1.46,0,0,1,.52.6,2.17,2.17,0,0,1,.18.91Zm-.62-.19A1.54,1.54,0,0,0,55,.83a.78.78,0,0,0-1.26,0,1.49,1.49,0,0,0-.23.88v.21a1.53,1.53,0,0,0,.23.9.71.71,0,0,0,.63.32A.7.7,0,0,0,55,2.83a1.55,1.55,0,0,0,.22-.91Z"/><path d="M58.46,2.1H57V3.6h-.61V.05h2.26v.5H57V1.6h1.44Z"/></g></g></g></svg>