<svg xmlns="http://www.w3.org/2000/svg" xmlns:xlink="http://www.w3.org/1999/xlink" viewBox="0 0 84.27 64.43"><defs><style>.cls-1{fill:url(#linear-gradient);}.cls-2{fill:url(#linear-gradient-2);}.cls-3{fill:#a99980;}.cls-4{fill:#987b4f;}.cls-5{fill:url(#linear-gradient-3);}.cls-6{fill:url(#linear-gradient-4);}.cls-7{isolation:isolate;}.cls-8{fill:#fff;}.cls-9{fill:url(#linear-gradient-5);}.cls-10{fill:url(#linear-gradient-6);}.cls-11{fill:url(#linear-gradient-7);}.cls-12{fill:url(#linear-gradient-8);}.cls-13{fill:url(#linear-gradient-9);}.cls-14{fill:url(#linear-gradient-10);}.cls-15{fill:url(#linear-gradient-11);}.cls-16{fill:url(#linear-gradient-12);}.cls-17{fill:url(#linear-gradient-13);}.cls-18{fill:url(#linear-gradient-14);}.cls-19{fill:url(#linear-gradient-15);}.cls-20{fill:url(#linear-gradient-16);}.cls-21{fill:url(#linear-gradient-17);}.cls-22{fill:url(#linear-gradient-18);}.cls-23{fill:url(#linear-gradient-19);}.cls-24{fill:url(#linear-gradient-20);}.cls-25{fill:url(#linear-gradient-21);}.cls-26{fill:url(#linear-gradient-22);}.cls-27{fill:url(#linear-gradient-23);}.cls-28{fill:url(#linear-gradient-24);}.cls-29{fill:url(#linear-gradient-25);}</style><linearGradient id="linear-gradient" x1="-70.05" y1="-1492.65" x2="-70.05" y2="-1437.99" gradientTransform="matrix(1, 0, 0, -1, 112.23, -1431.02)" gradientUnits="userSpaceOnUse"><stop offset="0.37" stop-color="#b99930" stop-opacity="0"/><stop offset="0.97" stop-color="#b99930" stop-opacity="0.91"/><stop offset="1" stop-color="#b99930"/></linearGradient><linearGradient id="linear-gradient-2" x1="-70" y1="-1456.45" x2="-70" y2="-1443.8" gradientTransform="matrix(1, 0, 0, -1, 112.23, -1431.02)" gradientUnits="userSpaceOnUse"><stop offset="0" stop-color="#b6875c"/><stop offset="0.51" stop-color="#e8bd82"/><stop offset="0.99" stop-color="#b9975d"/></linearGradient><linearGradient id="linear-gradient-3" x1="-81" y1="-1466.05" x2="-75.46" y2="-1466.05" gradientTransform="matrix(1, 0, 0, -1, 112.23, -1431.02)" gradientUnits="userSpaceOnUse"><stop offset="0.04" stop-color="#a37c4f"/><stop offset="0.23" stop-color="#e9bb7c"/><stop offset="0.28" stop-color="#d5ac6f"/><stop offset="0.35" stop-color="#c5a065"/><stop offset="0.42" stop-color="#bc995f"/><stop offset="0.52" stop-color="#b9975d"/><stop offset="0.65" stop-color="#bc995f"/><stop offset="0.74" stop-color="#c59f67"/><stop offset="0.81" stop-color="#d4a974"/><stop offset="0.82" stop-color="#d7ab76"/><stop offset="1" stop-color="#685a43"/></linearGradient><linearGradient id="linear-gradient-4" x1="-74.45" y1="-1464.3" x2="-59.09" y2="-1464.3" gradientTransform="matrix(1, 0, 0, -1, 112.23, -1431.02)" gradientUnits="userSpaceOnUse"><stop offset="0" stop-color="#8f6e45"/><stop offset="0.17" stop-color="#e8bd82"/><stop offset="0.25" stop-color="#d4ab76"/><stop offset="0.5" stop-color="#9d7954"/><stop offset="0.59" stop-color="#a07b56"/><stop offset="0.66" stop-color="#a9835a"/><stop offset="0.71" stop-color="#b89163"/><stop offset="0.76" stop-color="#cea46f"/><stop offset="0.78" stop-color="#daae75"/><stop offset="1" stop-color="#694f36"/></linearGradient><linearGradient id="linear-gradient-5" x1="-53.6" y1="-1475.1" x2="-27.97" y2="-1475.1" gradientTransform="matrix(1, 0, 0, -1, 112.23, -1431.02)" gradientUnits="userSpaceOnUse"><stop offset="0" stop-color="#b89063"/><stop offset="0.21" stop-color="#edc285"/><stop offset="0.21" stop-color="#ecc185"/><stop offset="0.37" stop-color="#c29b6b"/><stop offset="0.49" stop-color="#a9845b"/><stop offset="0.57" stop-color="#9f7b55"/><stop offset="1" stop-color="#d7ae77"/></linearGradient><linearGradient id="linear-gradient-6" x1="-106.85" y1="-1493.85" x2="-104.62" y2="-1493.85" gradientTransform="matrix(1, 0, 0, -1, 112.23, -1431.02)" gradientUnits="userSpaceOnUse"><stop offset="0" stop-color="#b89063"/><stop offset="1" stop-color="#edc285"/></linearGradient><linearGradient id="linear-gradient-7" x1="-103.02" y1="-1493.65" x2="-101.01" y2="-1493.65" xlink:href="#linear-gradient-6"/><linearGradient id="linear-gradient-8" x1="-99.61" y1="-1493.65" x2="-97.14" y2="-1493.65" xlink:href="#linear-gradient-6"/><linearGradient id="linear-gradient-9" x1="-95.68" y1="-1493.65" x2="-93.98" y2="-1493.65" xlink:href="#linear-gradient-6"/><linearGradient id="linear-gradient-10" x1="-92.42" y1="-1493.65" x2="-91.88" y2="-1493.65" xlink:href="#linear-gradient-6"/><linearGradient id="linear-gradient-11" x1="-90.37" y1="-1493.75" x2="-88.23" y2="-1493.75" xlink:href="#linear-gradient-6"/><linearGradient id="linear-gradient-12" x1="-86.9" y1="-1493.7" x2="-84.62" y2="-1493.7" xlink:href="#linear-gradient-6"/><linearGradient id="linear-gradient-13" x1="-80.99" y1="-1493.65" x2="-80.45" y2="-1493.65" xlink:href="#linear-gradient-6"/><linearGradient id="linear-gradient-14" x1="-78.84" y1="-1493.55" x2="-76.82" y2="-1493.55" xlink:href="#linear-gradient-6"/><linearGradient id="linear-gradient-15" x1="-73.17" y1="-1493.75" x2="-70.93" y2="-1493.75" xlink:href="#linear-gradient-6"/><linearGradient id="linear-gradient-16" x1="-69.34" y1="-1493.65" x2="-67.33" y2="-1493.65" xlink:href="#linear-gradient-6"/><linearGradient id="linear-gradient-17" x1="-65.66" y1="-1493.75" x2="-63.62" y2="-1493.75" xlink:href="#linear-gradient-6"/><linearGradient id="linear-gradient-18" x1="-59.94" y1="-1493.7" x2="-57.18" y2="-1493.7" xlink:href="#linear-gradient-6"/><linearGradient id="linear-gradient-19" x1="-55.67" y1="-1493.65" x2="-53.21" y2="-1493.65" xlink:href="#linear-gradient-6"/><linearGradient id="linear-gradient-20" x1="-51.71" y1="-1493.65" x2="-51.17" y2="-1493.65" xlink:href="#linear-gradient-6"/><linearGradient id="linear-gradient-21" x1="-49.44" y1="-1493.65" x2="-47.31" y2="-1493.65" xlink:href="#linear-gradient-6"/><linearGradient id="linear-gradient-22" x1="-45.72" y1="-1493.55" x2="-43.71" y2="-1493.55" xlink:href="#linear-gradient-6"/><linearGradient id="linear-gradient-23" x1="-42.28" y1="-1493.75" x2="-40.14" y2="-1493.75" xlink:href="#linear-gradient-6"/><linearGradient id="linear-gradient-24" x1="-39.05" y1="-1493.65" x2="-36.59" y2="-1493.65" xlink:href="#linear-gradient-6"/><linearGradient id="linear-gradient-25" x1="-35.62" y1="-1493.7" x2="-33.35" y2="-1493.7" xlink:href="#linear-gradient-6"/></defs><g id="Layer_2" data-name="Layer 2"><g id="Layer_1-2" data-name="Layer 1"><circle class="cls-1" cx="42.17" cy="34.33" r="27.3"/><path class="cls-2" d="M40.77,21.73V22l2.9,3.4v-3.7c.3,0,.4-.2.5-.4h2.6a.8.8,0,0,0,0-1.6h-2.5a.65.65,0,0,0-.6-.6h-.5v-.7a2.89,2.89,0,1,0-3.9-2.7.75.75,0,0,0,.1.5,4.37,4.37,0,0,1,1-.6,1.9,1.9,0,0,1,3.8.1,1.89,1.89,0,0,1-.9,1.6,1,1,0,0,0-1-.8,1.08,1.08,0,0,0-1,.8L41,17a4.62,4.62,0,0,0-.7.7,3.59,3.59,0,0,0,1,.7v.7h-.5a.65.65,0,0,0-.6.6h-2.5a.8.8,0,0,0,0,1.6h2.5A.82.82,0,0,0,40.77,21.73Zm1.4-8.3a2.46,2.46,0,0,0-2.4,2.1v-.1a2.4,2.4,0,1,1,4.8,0v.1A2.32,2.32,0,0,0,42.17,13.43Z"/><path class="cls-3" d="M46.77,40.13h.8a2.09,2.09,0,0,1-.4.6c0,.1-.1.1-.1.2a3,3,0,0,1-.8.8.35.35,0,0,1-.2.1h0c-.2.2-.5.3-.7.5s-.2.1-.4.2-.2.1-.3.1a6.58,6.58,0,0,1-1.5.4h-1.6a4.42,4.42,0,0,1-1.5-.5.35.35,0,0,1-.2-.1h0c-.3-.2-.7-.4-1-.6l-.1-.1-.1-.1a5.24,5.24,0,0,1-1-1.1c.1-.1.1-.2,0-.2a3.55,3.55,0,0,1-.4-.9c0-.1-.1-.2-.1-.3h0V39a6,6,0,0,1,.3-2.6,3.67,3.67,0,0,0-.1,1.8h0a.9.9,0,0,0,.1.5h0a.9.9,0,0,0,.1.5c0,.1,0,.1.1.2h0a.52.52,0,0,0,.2.4h0a3.51,3.51,0,0,0,.5.8v.1l.3.3h0c.1.2.3.3.5.5h0c.1.1.2.1.3.2l.1.1h0a10.91,10.91,0,0,0,1.1.6h.1c.2.1.3.1.5.2h0a3,3,0,0,0,1,.2h.3a2.77,2.77,0,0,0,.9-.1h0c.2,0,.2-.1.4-.1h0a3,3,0,0,0,1-.4h0c.1,0,.2-.1.3-.2a.1.1,0,0,0,.1-.1,2.65,2.65,0,0,0,.6-.5l.2-.2C46.27,40.83,46.57,40.53,46.77,40.13Z"/><path class="cls-3" d="M45.57,16.43a.37.37,0,0,1,.1-.3,9.52,9.52,0,0,1,2.1,1.9A8.23,8.23,0,0,0,45.57,16.43Z"/><path class="cls-3" d="M48.67,35.93h0v.5l-.2.1-.1.1-.3.1v-.6h0v-.3h0c0-.4-.1-.8-.1-1.2h0a.37.37,0,0,0-.1-.3c-.1-.3-.1-.6-.2-.9h0c0-.1-.1-.2-.1-.3a6.72,6.72,0,0,0-.6-1.2h0c0-.1-.1-.1-.1-.2h0c-.2-.3-.4-.7-.6-1h0c0-.1-.1-.1-.1-.2h0a5.5,5.5,0,0,0-.7-.9h0l-.2-.2a6.47,6.47,0,0,0-.8-.9h0l-.2-.2c-.3-.3-.6-.7-.9-1h0l-.2-.2a6,6,0,0,0-.8-.8h0c-.1-.1-.1-.1-.1-.2a.1.1,0,0,1-.1-.1,6.47,6.47,0,0,0-.8-.9l-.2-.2a10.63,10.63,0,0,1-.9-1.1c0-.1-.1-.1-.1-.2l-.2-.2-.6-.9a.35.35,0,0,1-.1-.2h0a3.38,3.38,0,0,1-.6-1.2.35.35,0,0,1-.1-.2.9.9,0,0,1-.1-.5,2,2,0,0,1,0-1.1v-.2a4.87,4.87,0,0,1,.4-1.1c0-.1,0-.1.1-.2s.3-.4.4-.6l.3-.3.2-.2h0a9.38,9.38,0,0,1,1.2-.9h0c.1,0,.1-.1.2-.1h0a2.35,2.35,0,0,1,.8-.2,4.33,4.33,0,0,1,.5-.1h1v.4h-.1a2.2,2.2,0,0,0-.8.1h0a1.09,1.09,0,0,0-.5.1h-.1a3.08,3.08,0,0,0-1.2.5h0c-.1.1-.2.1-.3.2h0a2.7,2.7,0,0,0-.8.7h0l-.1.1a.35.35,0,0,0-.1.2h0a1.61,1.61,0,0,0-.4.7h0a.37.37,0,0,0-.1.3h0a2.46,2.46,0,0,0-.1,1.2v.5c.1.2.1.4.2.6a.35.35,0,0,0,.1.2,6.73,6.73,0,0,0,.7,1.1h0c0,.1.1.1.1.2.2.3.5.6.7.9h0l.2.2h0a7,7,0,0,1,.8,1l.2.2c.2.2.3.4.5.5l.3.3h0c0,.1.1.1.2.2.3.3.6.7.9,1h0l.2.2a6,6,0,0,0,.8.8c0,.1.1.1.2.2.3.4.6.7.9,1.1a.35.35,0,0,1,.1.2,5.55,5.55,0,0,0,.6.8v.1h0a.35.35,0,0,1,.1.2h0c.2.3.4.7.6,1h0c0,.1.1.1.1.2h0a6.12,6.12,0,0,1,.5,1.2c0,.1.1.1.1.2h0a6.47,6.47,0,0,1,.4,1.3h0v.2h0c0,.3.1.6.1.9h0A1.34,1.34,0,0,1,48.67,35.93Z"/><path class="cls-4" d="M44.37,28.43l-.2-.2-.3-1.4.2.2Z"/><path class="cls-4" d="M45.37,29.53l-.2-.2-.4-1.4c0,.1.1.1.2.2Z"/><path class="cls-4" d="M46.17,30.63c0-.1-.1-.1-.1-.2h0l-.1-1.3a.35.35,0,0,1,.1.2Z"/><path class="cls-4" d="M46.77,31.73h0v-1.4a.35.35,0,0,1,.1.2h0v1.4A.35.35,0,0,0,46.77,31.73Z"/><path class="cls-4" d="M47.57,33.43c0-.1-.1-.2-.1-.3v-1.6c0,.1.1.1.1.2h0Z"/><path class="cls-4" d="M48.17,33.13h0l-.3,1.5a.37.37,0,0,0-.1-.3l.3-1.4A.35.35,0,0,0,48.17,33.13Z"/><path class="cls-4" d="M48.57,34.73h0l-.5,1.4v-.3h0l.5-1.3Z"/><path class="cls-4" d="M48.67,35.93h0l-.2.5-.1.1.3-.9Z"/><path class="cls-4" d="M47.17,40.73c0,.1-.1.1-.1.2l-1.3.4.2-.2Z"/><path class="cls-4" d="M46.27,41.73a.35.35,0,0,1-.2.1h0l-1.3.2c.1,0,.2-.1.3-.2Z"/><path class="cls-4" d="M45,42.53c-.1,0-.2.1-.3.1l-1.4-.1c.2,0,.2-.1.4-.1h0Z"/><path class="cls-4" d="M43.27,43h-.2l-1-.4h.3Z"/><path class="cls-4" d="M40.57,42.23h0l1.2.8h.3l-1-.6h0Z"/><path class="cls-4" d="M40.27,42.53a.35.35,0,0,1-.2-.1h0l-.9-1c.1.1.2.1.3.2l.1.1h0Z"/><path class="cls-4" d="M39,41.83h0c-.1-.1-.2-.1-.2-.2l-.5-1.1.3.3h0Z"/><path class="cls-4" d="M37.87,40.53c-.1-.1-.1-.2-.2-.2l-.1-1a.52.52,0,0,0,.2.4h0Z"/><path class="cls-4" d="M37.37,38.53h0l-.1.8c0-.1-.1-.2-.1-.3h0l.1-1A1.09,1.09,0,0,1,37.37,38.53Z"/><path class="cls-4" d="M43.27,27.23l-.2-.2-.3-1.3c0,.1.1.1.2.2Z"/><path class="cls-4" d="M42.37,26.23c-.1-.1-.1-.1-.1-.2l-.4-1.4.2.2Z"/><path class="cls-4" d="M41.37,25.13l-.2-.2-.3-1.5.2.2h0Z"/><path class="cls-4" d="M40.27,23.83c0-.1-.1-.1-.1-.2l-.1-1.3c0,.1.1.1.1.2Z"/><path class="cls-4" d="M39.37,22.53a.35.35,0,0,1-.1-.2h0v-1.4a.35.35,0,0,0,.1.2Z"/><path class="cls-4" d="M39.17,18.43a.37.37,0,0,0-.1.3h0l-.7.7v-.2Z"/><path class="cls-4" d="M39.77,17.43h0c-.1.1-.2.2-.2.3h0l-.8.4c0-.1,0-.1.1-.2Z"/><path class="cls-4" d="M41,16.53c-.1.1-.2.1-.3.2h0l-1,.3.2-.2h0Z"/><path class="cls-4" d="M42.67,15.93a1.09,1.09,0,0,0-.5.1h-.1l-1.1-.1c.1,0,.1-.1.2-.1h0Z"/><path class="cls-4" d="M43.57,15.83h0l-1-.3h.2Z"/><path class="cls-4" d="M39,20.13l-.4,1a.35.35,0,0,1-.1-.2l.4-1.2C38.87,19.93,38.87,20,39,20.13Z"/><path class="cls-5" d="M35.37,37.23a5.21,5.21,0,0,0,1.3.5v-.5c-1.2-.3-2.3-1.4-2.1-3.7a11.23,11.23,0,0,1,.4-3.1,7.59,7.59,0,0,0-3.7,4.4,5.32,5.32,0,0,1,1.7-.5,4.09,4.09,0,0,1,.7-1.5s-1.2,2.9-.5,4.4a4.52,4.52,0,0,0,3.6,2.4,11.14,11.14,0,0,1-.2-1.7A2.52,2.52,0,0,1,35.37,37.23Zm-3.1-3.1-.5.2a7.7,7.7,0,0,1,2.4-2.9A10.77,10.77,0,0,0,32.27,34.13Z"/><path class="cls-6" d="M51.47,34.43a5.32,5.32,0,0,1,1.7.5,7.59,7.59,0,0,0-3.7-4.4,11.23,11.23,0,0,1,.4,3.1c.2,2.9-1.6,3.8-3.1,3.8a3.25,3.25,0,0,1-3.1-3.4v-5.3l-2.9-3.1V34a3.3,3.3,0,0,1-3,3.4v.4c.2,0,.4-.1.6-.1a5,5,0,0,0,2.5-2,3,3,0,0,1-2.1,2.4,5.63,5.63,0,0,0,2.1-.5,5.19,5.19,0,0,1-3.1.8,2.73,2.73,0,0,0,.5,1.4c1.5-.1,2.3-.3,3.8,1.1v-.1l.1.1c1.8-1.6,2.5-1.1,4.6-1.1a4.92,4.92,0,0,0,4.4-2.5c.7-1.5-.5-4.4-.5-4.4A3.46,3.46,0,0,1,51.47,34.43Zm-8,3.2a5.63,5.63,0,0,0,2.1.5,3,3,0,0,1-2.1-2.4,5,5,0,0,0,2.5,2,4,4,0,0,0,3.1-.5A4.46,4.46,0,0,1,43.47,37.63Zm6.6-6.5h0a8.54,8.54,0,0,1,2.5,3.2l-.5-.2A9.44,9.44,0,0,0,50.07,31.13Z"/><g class="cls-7"><path class="cls-8" d="M.65,58.2A2.94,2.94,0,0,1,0,56.14v-.63H1.64v.76c0,.71.3,1.07.9,1.07a.87.87,0,0,0,.67-.26,1.31,1.31,0,0,0,.22-.85A2.36,2.36,0,0,0,3.12,55,5.75,5.75,0,0,0,2,53.75,6.93,6.93,0,0,1,.46,52,3.44,3.44,0,0,1,0,50.31a2.87,2.87,0,0,1,.66-2,2.47,2.47,0,0,1,1.92-.72,2.41,2.41,0,0,1,1.89.72,3,3,0,0,1,.63,2.05v.46H3.5v-.57a1.3,1.3,0,0,0-.22-.82.8.8,0,0,0-.65-.26q-.87,0-.87,1.05a2.06,2.06,0,0,0,.33,1.12,5.75,5.75,0,0,0,1.17,1.26,6.65,6.65,0,0,1,1.5,1.72,3.84,3.84,0,0,1,.41,1.81,3,3,0,0,1-.67,2.08,2.54,2.54,0,0,1-1.95.72A2.44,2.44,0,0,1,.65,58.2Z"/><path class="cls-8" d="M7.51,49.3H5.7V47.73h5.36V49.3H9.25v9.45H7.51Z"/><path class="cls-8" d="M11.89,47.73h4.73V49.3h-3v2.92H16v1.57H13.62v3.39h3v1.57H11.89Z"/><path class="cls-8" d="M19,47.73H21.3l1.79,11H21.36L21,56.57v0h-2l-.32,2.15H17.15Zm1.89,7.37-.77-5.45h0l-.76,5.45Z"/><path class="cls-8" d="M23.93,47.73h2.64a2.54,2.54,0,0,1,1.94.69,2.88,2.88,0,0,1,.65,2V56a2.88,2.88,0,0,1-.65,2,2.54,2.54,0,0,1-1.94.69H23.93Zm2.61,9.45a.86.86,0,0,0,.66-.25,1.22,1.22,0,0,0,.22-.82V50.38a1.2,1.2,0,0,0-.22-.82.87.87,0,0,0-.66-.26h-.88v7.88Z"/><path class="cls-8" d="M30.32,47.73h4.59V49.3H32.05v3.08h2.24V54H32.05v4.8H30.32Z"/><path class="cls-8" d="M36.58,47.73h2.34l1.8,11H39l-.32-2.18v0h-2l-.31,2.15H34.78Zm1.89,7.37-.78-5.45h0l-.75,5.45Z"/><path class="cls-8" d="M41.85,58.2a3,3,0,0,1-.64-2.06v-.63h1.63v.76c0,.71.3,1.07.9,1.07a.84.84,0,0,0,.67-.26,1.31,1.31,0,0,0,.23-.85A2.36,2.36,0,0,0,44.32,55a5.65,5.65,0,0,0-1.16-1.26A7,7,0,0,1,41.66,52a3.54,3.54,0,0,1-.42-1.73,2.87,2.87,0,0,1,.66-2,2.47,2.47,0,0,1,1.92-.72,2.37,2.37,0,0,1,1.88.72,3,3,0,0,1,.64,2.05v.46H44.7v-.57a1.24,1.24,0,0,0-.22-.82.78.78,0,0,0-.64-.26q-.87,0-.87,1.05a2.14,2.14,0,0,0,.32,1.12,6.11,6.11,0,0,0,1.18,1.26A6.39,6.39,0,0,1,46,54.3a3.72,3.72,0,0,1,.41,1.81,2.94,2.94,0,0,1-.67,2.08,2.51,2.51,0,0,1-1.94.72A2.47,2.47,0,0,1,41.85,58.2Z"/><path class="cls-8" d="M48.72,49.3H46.91V47.73h5.35V49.3H50.45v9.45H48.72Z"/><path class="cls-8" d="M58.14,47.73h1.73v4.49h1.86V47.73h1.73v11H61.73v-5H59.87v5H58.14Z"/><path class="cls-8" d="M65.31,58.19a2.85,2.85,0,0,1-.68-2v-5.8a2.83,2.83,0,0,1,.68-2,3,3,0,0,1,3.9,0,2.87,2.87,0,0,1,.68,2v5.8a2.9,2.9,0,0,1-.68,2,3,3,0,0,1-3.9,0Zm2.85-1.94v-6q0-1.08-.9-1.08t-.9,1.08v6c0,.72.3,1.09.9,1.09S68.16,57,68.16,56.25Z"/><path class="cls-8" d="M71.06,47.73h2.47l1.1,7.89h0l1.11-7.89h2.47v11H76.6V50.41h0l-1.26,8.34H73.86L72.6,50.41h0v8.34H71.06Z"/><path class="cls-8" d="M79.53,47.73h4.73V49.3h-3v2.92h2.38v1.57H81.26v3.39h3v1.57H79.53Z"/></g><polygon class="cls-9" points="60.67 46.83 58.67 46.83 64.87 41.33 69.47 45.53 84.27 45.53 84.27 46.83 68.97 46.83 64.77 43.13 60.67 46.83"/><path class="cls-10" d="M7.67,62.73c0,.2,0,.5-.1.6a1.38,1.38,0,0,1-.3.4l.4.3-.4.4-.5-.4h-.2a1.42,1.42,0,0,1-.6-.2c-.2-.1-.3-.3-.4-.4a1.48,1.48,0,0,1-.1-.7v-.1a1.48,1.48,0,0,1,.1-.7,1.76,1.76,0,0,1,.4-.5.73.73,0,0,1,.6-.2,1.42,1.42,0,0,1,.6.2,1,1,0,0,1,.4.5,1.72,1.72,0,0,1,.1.8Zm-.6-.1c0-.3,0-.5-.1-.6a.5.5,0,0,0-.8,0c-.1.1-.1.3-.1.6v.1c0,.3,0,.5.1.6a.5.5,0,0,0,.8,0c.1-.1.1-.4.1-.6Z"/><path class="cls-11" d="M11.27,61.33V63a1,1,0,0,1-1,1,1.17,1.17,0,0,1-.7-.2.91.91,0,0,1-.3-.7v-1.8h.5V63c0,.2,0,.3.1.4a.37.37,0,0,0,.3.1.47.47,0,0,0,.5-.5v-1.8l.6.1Z"/><path class="cls-12" d="M14.37,63.43h-.9l-.2.5h-.6l1-2.6h.5l1,2.6h-.6Zm-.8-.4h.7L14,62Z"/><path class="cls-13" d="M17.17,63.53h1.1v.4h-1.7v-2.6h.5v2.2Z"/><path class="cls-14" d="M20.37,63.93h-.5v-2.6h.5Z"/><path class="cls-15" d="M24.07,61.83h-.8V64h-.5v-2.2H22v-.4h2.1Z"/><path class="cls-16" d="M26.47,62.53l.5-1.2h.6l-.8,1.7v1h-.6V63l-.9-1.7h.6Z"/><path class="cls-17" d="M31.87,63.93h-.5v-2.6h.5Z"/><path class="cls-18" d="M34.87,63.33c0-.1,0-.2-.1-.2s-.2-.1-.4-.2-.3-.1-.4-.2a.75.75,0,0,1-.4-.7.6.6,0,0,1,.1-.4l.3-.3a1.3,1.3,0,0,1,1,0c.1.1.3.2.3.3a.6.6,0,0,1,.1.4h-.5a.43.43,0,0,0-.7-.3c-.1.1-.1.1-.1.2s0,.2.1.2.2.1.4.2a4.88,4.88,0,0,1,.7.3.76.76,0,0,1,.2.5.55.55,0,0,1-.3.5,1.45,1.45,0,0,1-.7.2,1.27,1.27,0,0,1-.6-.1,1.38,1.38,0,0,1-.4-.3.6.6,0,0,1-.1-.4h.5c0,.3.2.4.5.4a.37.37,0,0,0,.3-.1C34.87,63.43,34.87,63.43,34.87,63.33Z"/><path class="cls-19" d="M41.37,62.73a1.48,1.48,0,0,1-.1.7,1.76,1.76,0,0,1-.4.5,1,1,0,0,1-1.2,0c-.2-.1-.3-.3-.4-.4s-.1-.4-.1-.7v-.1a1.48,1.48,0,0,1,.1-.7,1.76,1.76,0,0,1,.4-.5,1,1,0,0,1,1.2,0,1,1,0,0,1,.4.5,1.48,1.48,0,0,1,.1.7Zm-.6-.1c0-.3,0-.5-.1-.6a.5.5,0,0,0-.8,0c-.1.1-.1.3-.1.6v.1c0,.3,0,.5.1.6a.5.5,0,0,0,.8,0c.1-.1.1-.4.1-.6Z"/><path class="cls-20" d="M45,61.33V63a1,1,0,0,1-1,1,1.17,1.17,0,0,1-.7-.2.91.91,0,0,1-.3-.7v-1.8h.5V63c0,.2,0,.3.1.4a.37.37,0,0,0,.3.1.47.47,0,0,0,.5-.5v-1.8l.6.1Z"/><path class="cls-21" d="M47.57,63h-.4v1h-.5v-2.6h1a1.17,1.17,0,0,1,.7.2.6.6,0,0,1,.3.6c0,.2,0,.3-.1.4a1.38,1.38,0,0,1-.4.3l.6,1.1h-.6Zm-.4-.5h.4a.4.4,0,1,0,0-.8h-.4Z"/><path class="cls-22" d="M53.07,61.33l.7,1.9.7-1.9h.7v2.6h-.5v-.7l.1-1.2-.7,2h-.4L53,62l.1,1.2v.7h-.5v-2.6Z"/><path class="cls-23" d="M58.27,63.43h-.9l-.2.5h-.6l1-2.6h.5l1,2.6h-.6Zm-.8-.4h.7l-.3-1Z"/><path class="cls-24" d="M61.07,63.93h-.5v-2.6h.5Z"/><path class="cls-25" d="M65,63.93h-.5l-1.1-1.7v1.7h-.5v-2.6h.5l1.1,1.7v-1.7H65Z"/><path class="cls-26" d="M68,63.33c0-.1,0-.2-.1-.2s-.2-.1-.4-.2-.3-.1-.4-.2a.75.75,0,0,1-.4-.7.6.6,0,0,1,.1-.4l.3-.3a1.3,1.3,0,0,1,1,0c.1.1.3.2.3.3a.6.6,0,0,1,.1.4H68a.43.43,0,0,0-.7-.3c-.1.1-.1.1-.1.2s0,.2.1.2.2.1.4.2a4.88,4.88,0,0,1,.7.3.76.76,0,0,1,.2.5.55.55,0,0,1-.3.5,1.45,1.45,0,0,1-.7.2,1.27,1.27,0,0,1-.6-.1,1.38,1.38,0,0,1-.4-.3.6.6,0,0,1-.1-.4H67c0,.3.2.4.5.4a.37.37,0,0,0,.3-.1C68,63.43,68,63.43,68,63.33Z"/><path class="cls-27" d="M72.17,61.83h-.8V64h-.6v-2.2H70v-.4h2.1v.4Z"/><path class="cls-28" d="M75,63.43h-.9l-.3.5h-.6l1-2.6h.5l1,2.6h-.6Zm-.9-.4h.7l-.3-1Z"/><path class="cls-29" d="M77.77,62.53l.5-1.2h.6L78,63v1h-.6V63l-.9-1.7h.6Z"/><g class="cls-7"><path class="cls-8" d="M28.38,2.78H27l-.28.82h-.65L27.42.05H28L29.32,3.6h-.65Zm-1.2-.5h1L27.69.8Z"/><path class="cls-8" d="M31,3.6V.05h1a1.64,1.64,0,0,1,.84.21,1.45,1.45,0,0,1,.56.59,1.85,1.85,0,0,1,.2.89v.18a1.79,1.79,0,0,1-.2.88,1.38,1.38,0,0,1-.57.6,1.81,1.81,0,0,1-.85.2Zm.62-3V3.11H32a.93.93,0,0,0,.75-.3A1.36,1.36,0,0,0,33,1.93V1.74a1.35,1.35,0,0,0-.25-.89A.89.89,0,0,0,32,.55Z"/><path class="cls-8" d="M34.88,3.6h-.61V.05h.61Z"/><path class="cls-8" d="M36.89,2.83,37.8.05h.68L37.2,3.6h-.6L35.32.05H36Z"/><path class="cls-8" d="M39.53,3.6h-.62V.05h.62Z"/><path class="cls-8" d="M42.15,2.69A.42.42,0,0,0,42,2.33a2,2,0,0,0-.59-.26,2.86,2.86,0,0,1-.69-.29A.91.91,0,0,1,40.22,1a.84.84,0,0,1,.35-.71A1.38,1.38,0,0,1,41.48,0a1.45,1.45,0,0,1,.66.14,1.07,1.07,0,0,1,.45.39.91.91,0,0,1,.17.56h-.61A.56.56,0,0,0,42,.65a.7.7,0,0,0-.5-.16A.8.8,0,0,0,41,.62a.45.45,0,0,0-.17.36.4.4,0,0,0,.18.33,2.07,2.07,0,0,0,.6.25,2.87,2.87,0,0,1,.67.28,1.19,1.19,0,0,1,.37.37,1,1,0,0,1,.11.47.85.85,0,0,1-.34.71,1.48,1.48,0,0,1-.92.26,1.8,1.8,0,0,1-.71-.14,1.25,1.25,0,0,1-.5-.39,1,1,0,0,1-.18-.59h.61a.59.59,0,0,0,.2.47.91.91,0,0,0,.58.16A.74.74,0,0,0,42,3,.41.41,0,0,0,42.15,2.69Z"/><path class="cls-8" d="M44,3.6h-.62V.05H44Z"/><path class="cls-8" d="M47.55,1.92a2.22,2.22,0,0,1-.18.92,1.37,1.37,0,0,1-.51.6,1.47,1.47,0,0,1-.78.21,1.44,1.44,0,0,1-.77-.21,1.39,1.39,0,0,1-.52-.6,2.13,2.13,0,0,1-.19-.9v-.2a2.22,2.22,0,0,1,.19-.92,1.31,1.31,0,0,1,.52-.61A1.41,1.41,0,0,1,46.08,0a1.44,1.44,0,0,1,.77.21,1.39,1.39,0,0,1,.52.6,2.17,2.17,0,0,1,.18.91Zm-.61-.19a1.53,1.53,0,0,0-.23-.9.78.78,0,0,0-1.26,0,1.49,1.49,0,0,0-.23.88v.21a1.53,1.53,0,0,0,.23.9.71.71,0,0,0,.63.32.7.7,0,0,0,.63-.31,1.55,1.55,0,0,0,.23-.91Z"/><path class="cls-8" d="M51,3.6h-.62L48.79,1.08V3.6h-.62V.05h.62l1.59,2.53V.05H51Z"/><path class="cls-8" d="M55.8,1.92a2.22,2.22,0,0,1-.18.92,1.33,1.33,0,0,1-.52.6,1.41,1.41,0,0,1-.77.21,1.44,1.44,0,0,1-.77-.21,1.33,1.33,0,0,1-.52-.6,2,2,0,0,1-.19-.9v-.2A2.07,2.07,0,0,1,53,.82a1.34,1.34,0,0,1,.51-.61,1.54,1.54,0,0,1,1.55,0,1.37,1.37,0,0,1,.51.6,2,2,0,0,1,.19.91Zm-.62-.19A1.54,1.54,0,0,0,55,.83a.78.78,0,0,0-1.26,0,1.49,1.49,0,0,0-.23.88v.21a1.46,1.46,0,0,0,.23.9.71.71,0,0,0,.63.32A.73.73,0,0,0,55,2.83a1.55,1.55,0,0,0,.22-.91Z"/><path class="cls-8" d="M58.46,2.1H57V3.6h-.61V.05h2.25v.5H57V1.6h1.43Z"/></g></g></g></svg>