<?xml version="1.0" encoding="UTF-8" standalone="no"?>
<svg
   id="Group_55"
   data-name="Group 55"
   width="900.135"
   height="100.643"
   viewBox="0 0 900.135 100.643"
   version="1.1"
   sodipodi:docname="logo_big_black.svg"
   inkscape:version="1.1 (c68e22c387, 2021-05-23)"
   xmlns:inkscape="http://www.inkscape.org/namespaces/inkscape"
   xmlns:sodipodi="http://sodipodi.sourceforge.net/DTD/sodipodi-0.dtd"
   xmlns="http://www.w3.org/2000/svg"
   xmlns:svg="http://www.w3.org/2000/svg">
  <sodipodi:namedview
     id="namedview943"
     pagecolor="#ffffff"
     bordercolor="#666666"
     borderopacity="1.0"
     inkscape:pageshadow="2"
     inkscape:pageopacity="0.0"
     inkscape:pagecheckerboard="0"
     showgrid="false"
     inkscape:zoom="4.7015169"
     inkscape:cx="681.16314"
     inkscape:cy="90.502706"
     inkscape:window-width="1920"
     inkscape:window-height="1017"
     inkscape:window-x="-8"
     inkscape:window-y="-8"
     inkscape:window-maximized="1"
     inkscape:current-layer="Group_55" />
  <defs
     id="defs916">
    <clipPath
       id="clip-path">
      <rect
         id="Rectangle_29"
         data-name="Rectangle 29"
         width="900.135"
         height="100.643"
         fill="none" />
    </clipPath>
  </defs>
  <rect
     id="Rectangle_27"
     data-name="Rectangle 27"
     width="2.631"
     height="19.061"
     transform="translate(733.53 76.84)"
     style="fill:#ffffff" />
  <path
     id="Path_45"
     data-name="Path 45"
     d="M162.431,35.944h2.626v-13.8h-2.626Zm0-16h2.626V16.883h-2.626Z"
     transform="translate(576.843 59.957)"
     style="fill:#ffffff" />
  <g
     id="Group_54"
     data-name="Group 54"
     transform="translate(0 0)"
     style="fill:#ffffff">
    <g
       id="Group_53"
       data-name="Group 53"
       clip-path="url(#clip-path)"
       style="fill:#ffffff">
      <path
         id="Path_46"
         data-name="Path 46"
         d="M168.064,31.839l-4.742-13.8h2.8l2.344,7.4c.282.883.742,2.571,1.083,3.855a2.872,2.872,0,0,1,.146-.569l.255-1.029c.059-.232.514-1.775.628-2.2l2.344-7.455h2.8l-4.77,13.8Z"
         transform="translate(580.007 64.062)"
         style="fill:#ffffff" />
      <path
         id="Path_47"
         data-name="Path 47"
         d="M169,19.941h-2.631V16.883H169Zm0,16h-2.631v-13.8H169Z"
         transform="translate(590.835 59.957)"
         style="fill:#ffffff" />
      <path
         id="Path_48"
         data-name="Path 48"
         d="M170.15,18.33V19.9a5.24,5.24,0,0,1,4.374-1.943,4.648,4.648,0,0,1,3.741,1.516,5.177,5.177,0,0,1,.915,3.427v9.23h-2.631V23.1c0-1.884-.856-2.8-2.658-2.8a3.275,3.275,0,0,0-3.627,3.459v8.37h-2.631V18.33Z"
         transform="translate(595.317 63.771)"
         style="fill:#ffffff" />
      <path
         id="Path_49"
         data-name="Path 49"
         d="M183.2,18.33V31.588c0,1.83-.428,3.031-1.4,3.828a7.3,7.3,0,0,1-4.829,1.456,6.171,6.171,0,0,1-4.6-1.57,3.78,3.78,0,0,1-1-2.544h2.512c.146,1.343,1.2,2.03,3.172,2.03,2.485,0,3.632-1.056,3.632-3.341V29.872a5.382,5.382,0,0,1-4.087,1.8c-3.486,0-5.917-2.772-5.917-6.745,0-4.114,2.458-6.973,5.971-6.973a4.787,4.787,0,0,1,4.087,1.889l-.055-1.516Zm-9.858,6.486c0,2.826,1.4,4.574,3.714,4.574,2.257,0,3.687-1.748,3.687-4.519,0-2.881-1.37-4.629-3.714-4.629-2.285,0-3.687,1.748-3.687,4.574"
         transform="translate(606.148 63.771)"
         style="fill:#ffffff" />
      <path
         id="Path_50"
         data-name="Path 50"
         d="M178.472,19.941h-2.631V16.883h2.631Zm0,16h-2.631v-13.8h2.631Z"
         transform="translate(624.466 59.957)"
         style="fill:#ffffff" />
      <path
         id="Path_51"
         data-name="Path 51"
         d="M179.619,18.33V19.9a5.241,5.241,0,0,1,4.374-1.943,4.648,4.648,0,0,1,3.741,1.516,5.177,5.177,0,0,1,.915,3.427v9.23h-2.631V23.1c0-1.884-.856-2.8-2.658-2.8a3.275,3.275,0,0,0-3.627,3.459v8.37H177.1V18.33Z"
         transform="translate(628.944 63.771)"
         style="fill:#ffffff" />
      <path
         id="Path_52"
         data-name="Path 52"
         d="M186.525,30.227l-1.943,5.716H181.7l7-19.061h2.913l7.032,19.061h-2.972L193.7,30.227Zm3.6-10.4-2.8,8.115h5.6Z"
         transform="translate(645.259 59.957)"
         style="fill:#ffffff" />
      <path
         id="Path_53"
         data-name="Path 53"
         d="M192.384,23.536H189.9v8.657c0,.8.369,1.261,1.029,1.261a3.8,3.8,0,0,0,1.456-.373v2.144a8.881,8.881,0,0,1-2.2.314c-1.971,0-2.913-1.056-2.913-3.345V23.536h-1.857V21.452h1.857V17.078H189.9v4.374h2.485Z"
         transform="translate(658.452 60.649)"
         style="fill:#ffffff" />
      <path
         id="Path_54"
         data-name="Path 54"
         d="M189.974,23.4a5.648,5.648,0,0,1,4.114-1.629,4.832,4.832,0,0,1,3.887,1.6,4.869,4.869,0,0,1,.915,3.341v9.23h-2.631v-8.8a2.984,2.984,0,0,0-.569-2.226,2.763,2.763,0,0,0-2.116-.8,3.33,3.33,0,0,0-3.6,3.687V35.94h-2.631V16.884h2.631Z"
         transform="translate(665.313 59.96)"
         style="fill:#ffffff" />
      <path
         id="Path_55"
         data-name="Path 55"
         d="M193.2,19.941h-2.631V16.883H193.2Zm0,16h-2.631v-13.8H193.2Z"
         transform="translate(676.77 59.957)"
         style="fill:#ffffff" />
      <path
         id="Path_56"
         data-name="Path 56"
         d="M194.347,18.33V19.9a5.24,5.24,0,0,1,4.374-1.943,4.648,4.648,0,0,1,3.741,1.516,5.177,5.177,0,0,1,.915,3.427v9.23h-2.631V23.1c0-1.884-.856-2.8-2.658-2.8a3.275,3.275,0,0,0-3.627,3.459v8.37H191.83V18.33Z"
         transform="translate(681.248 63.771)"
         style="fill:#ffffff" />
      <path
         id="Path_57"
         data-name="Path 57"
         d="M195.565,22.9a5.248,5.248,0,0,1,1.115-3.373,6.014,6.014,0,0,1,4.483-1.57c3.432,0,5.375,1.629,5.375,4.488V28.93c0,1.088.141,1.315.742,1.315a1.825,1.825,0,0,0,.687-.141V32.13a7.684,7.684,0,0,1-1.716.2c-1.256,0-1.83-.542-2.057-1.857a6.391,6.391,0,0,1-4.77,2.03c-2.69,0-4.519-1.661-4.519-4.087,0-2.23,1.374-3.6,4.174-4.174l3.058-.6c1.657-.314,2-.573,2-1.429,0-1.343-1.17-2.176-3.027-2.176a2.99,2.99,0,0,0-2.772,1.174,3.6,3.6,0,0,0-.314,1.684Zm8.629,2.144a11.215,11.215,0,0,1-1.629.514l-2.685.628c-1.6.373-2.317,1.029-2.317,2.116,0,1.256,1.029,2.116,2.571,2.116a3.874,3.874,0,0,0,4.06-3.6Z"
         transform="translate(692.168 63.771)"
         style="fill:#ffffff" />
      <path
         id="Path_58"
         data-name="Path 58"
         d="M86.015.473V94.221H78.724V69.753c0-22.684.3-45.39.719-56.527l.2-5.275-32.87,86.27H39.1L6.249,6.931l.187,5.3c.528,15.529.856,34.258.856,51.362V94.221H0V.473H10.554L43.078,87.23,75.9.473Z"
         transform="translate(0 1.68)"
         style="fill:#ffffff" />
      <path
         id="Path_59"
         data-name="Path 59"
         d="M65.506,0C39.65,0,22.291,19.675,22.291,48.958c0,29.351,17.432,49.095,43.356,49.095,25.533,0,43.379-19.907,43.379-48.38C109.025,19.489,91.944,0,65.506,0m.141,91.618c-21.227,0-35.509-17.154-35.509-42.659,0-12.084,3.127-22.643,8.775-29.747a34.36,34.36,0,0,1,53.469,0c5.835,7.432,8.775,17.614,8.775,30.325,0,25.16-14.259,42.081-35.509,42.081"
         transform="translate(79.162 0)"
         style="fill:#ffffff" />
      <path
         id="Path_60"
         data-name="Path 60"
         d="M119.174.473V94.221h-8.543L53.5,7.928l.255,3.332c.4,5.047.578,9.535.578,14.978l.141,11.6V94.221H47.623V.473h8.543l57.06,85.879-.187-3.2c-.414-7.569-.715-26.734-.715-39.164V.473Z"
         transform="translate(169.124 1.68)"
         style="fill:#ffffff" />
      <path
         id="Path_61"
         data-name="Path 61"
         d="M117.593.473H108.75L72.5,94.221h7.846L91.669,64.155h43.146l11.738,30.066h8.006ZM93.89,58.3,112.869,7.027,132.476,58.3Z"
         transform="translate(257.481 1.68)"
         style="fill:#ffffff" />
      <rect
         id="Rectangle_28"
         data-name="Rectangle 28"
         width="7.869"
         height="93.748"
         transform="translate(622.423 2.153)"
         style="fill:#ffffff" />
      <path
         id="Path_62"
         data-name="Path 62"
         d="M166.065,70.136c0,16.945-13.381,27.918-34.076,27.918-12.776,0-22.82-4.215-29.069-12.129-3.96-5.166-5.744-10.973-6.112-19.93h7.869c.6,16.526,10.418,25.624,27.754,25.624,15.647,0,25.765-8.147,25.765-20.763,0-9.931-5.926-15.233-20.44-18.31l-17.177-3.728c-14.769-3.2-21.641-10.577-21.641-23.193C98.938,9.813,111.277,0,131.134,0c19.976,0,31.272,9.3,32.71,26.894H156c-.906-13.217-9.817-20.463-25.141-20.463-14.628,0-24.072,7.523-24.072,19.193,0,8.82,5.07,13.8,16.435,16.157l17.891,3.864c9.053,1.943,14.423,4.283,18.474,8.079a22.281,22.281,0,0,1,6.481,16.412"
         transform="translate(343.795 0)"
         style="fill:#ffffff" />
      <path
         id="Path_63"
         data-name="Path 63"
         d="M183.982.473V6.886H153.634V94.221h-7.869V6.886H115.417V.473Z"
         transform="translate(409.881 1.68)"
         style="fill:#ffffff" />
      <path
         id="Path_64"
         data-name="Path 64"
         d="M214.63,94.221h-9.562l-38.4-50.392L150.234,59.2V94.221h-7.846V.473h7.846V50.865L203.4.473h9.908l-41.2,38.1Z"
         transform="translate(505.661 1.68)"
         style="fill:#ffffff" />
    </g>
  </g>
</svg>
